# xmcd
# Copyright (C) 1995-1998 Ti Kan
#
# Track frame offsets:
#       150
#       24475
#       47180
#       70277
#       89037
#       110582
#       132837
#       151422
#       166282
#       189460
#
# Disc length: 2877 seconds
#
# Revision: 0
# Processed by: cddbd v1.5.1PL0 Copyright (c) Steve Scherf et al.
# Submitted via: CD-Transfer v1.0
#
DISCID=880b3b0a
DTITLE=The Wild Bouquet - 
DYEAR=95
DGENRE=
TTITLE0=Child of love
TTITLE1=Deep down
TTITLE2=Empty handed
TTITLE3=Ethel prays for cab drivers
TTITLE4=I see the light
TTITLE5=Room in the world
TTITLE6=Shelter
TTITLE7=Show me a country
TTITLE8=The trouble with you
TTITLE9=This is your time
EXTD=
EXTT0=
EXTT1=
EXTT2=
EXTT3=
EXTT4=
EXTT5=
EXTT6=
EXTT7=
EXTT8=
EXTT9=
PLAYORDER=
